<?xml version="1.0" encoding="UTF-8"?>
<svg version="1.1" xmlns="http://www.w3.org/2000/svg" width="512" height="512">
<path d="M0 0 C1.1089003 -0.00445784 2.2178006 -0.00891569 3.36030394 -0.01350862 C4.57847081 -0.01332426 5.79663769 -0.01313989 7.05171871 -0.01294994 C8.9930579 -0.01846498 8.9930579 -0.01846498 10.97361606 -0.02409142 C14.56904394 -0.03410344 18.16445513 -0.03782693 21.75989497 -0.04048073 C25.63669742 -0.0443862 29.51348669 -0.05396442 33.39028072 -0.0626936 C42.75470722 -0.08245191 52.11913479 -0.09252374 61.48357692 -0.10142139 C65.89481022 -0.10580561 70.30604232 -0.1111721 74.71727467 -0.11641026 C89.38383294 -0.13342245 104.05039047 -0.14791601 118.71695709 -0.155159 C122.52263102 -0.15706885 126.32830494 -0.15898919 130.13397884 -0.16094494 C131.55278096 -0.16167055 131.55278096 -0.16167055 133.00024574 -0.16241082 C148.31826535 -0.17070883 163.6362068 -0.19604191 178.95419229 -0.22852562 C194.68527624 -0.261613 210.41632049 -0.27960931 226.14743942 -0.28280324 C234.97805498 -0.28496686 243.8085566 -0.29369373 252.63913822 -0.31926441 C260.16071091 -0.34099442 267.68214199 -0.34901056 275.20374251 -0.33929763 C279.03907345 -0.33475947 282.87411234 -0.33661059 286.70940304 -0.35605907 C290.87441249 -0.37699641 295.03877711 -0.36668447 299.20381832 -0.35352612 C301.00764606 -0.36997998 301.00764606 -0.36997998 302.84791476 -0.38676625 C314.14239462 -0.30078273 323.06242333 2.65647125 331.57221127 10.13422108 C332.17807064 10.63566639 332.78393002 11.1371117 333.40814877 11.65375233 C339.53520592 17.15205034 343.94415715 25.03892196 345.57221127 33.13422108 C345.66447775 34.94168363 345.70305531 36.75219695 345.70643234 38.56200981 C345.71089019 39.67091011 345.71534803 40.77981041 345.71994096 41.92231375 C345.71966442 43.74956406 345.71966442 43.74956406 345.71938229 45.61372852 C345.72305897 46.90795465 345.72673566 48.20218078 345.73052377 49.53562587 C345.74053578 53.13105375 345.74425928 56.72646494 345.74691308 60.32190478 C345.75081854 64.19870724 345.76039676 68.0754965 345.76912594 71.95229053 C345.78888425 81.31671703 345.79895609 90.6811446 345.80785373 100.04558674 C345.81223796 104.45682003 345.81760445 108.86805213 345.8228426 113.27928448 C345.83985479 127.94584275 345.85434835 142.61240028 345.86159134 157.2789669 C345.8635012 161.08464083 345.86542153 164.89031475 345.86737728 168.69598866 C345.86786102 169.64185673 345.86834476 170.58772481 345.86884316 171.56225555 C345.87714117 186.88027516 345.90247425 202.19821661 345.93495796 217.5162021 C345.96804534 233.24728605 345.98604165 248.97833031 345.98923558 264.70944923 C345.9913992 273.54006479 346.00012607 282.37056642 346.02569675 291.20114803 C346.04742676 298.72272073 346.0554429 306.2441518 346.04572997 313.76575232 C346.04119181 317.60108326 346.04304293 321.43612215 346.06249142 325.27141285 C346.08342875 329.4364223 346.07311681 333.60078692 346.05995846 337.76582813 C346.07641233 339.56965587 346.07641233 339.56965587 346.0931986 341.40992457 C346.00721507 352.70440443 343.04996109 361.62443314 335.57221127 370.13422108 C335.07076595 370.74008045 334.56932064 371.34593983 334.05268002 371.97015858 C328.554382 378.09721573 320.66751038 382.50616697 312.57221127 384.13422108 C310.76474871 384.22648756 308.95423539 384.26506512 307.14442253 384.26844215 C305.48107208 384.27512892 305.48107208 384.27512892 303.78411859 384.28195077 C302.56595172 384.28176641 301.34778484 384.28158205 300.09270382 384.2813921 C298.79847769 384.28506879 297.50425157 384.28874547 296.17080647 384.29253358 C292.57537859 384.30254559 288.97996741 384.30626909 285.38452756 384.30892289 C281.50772511 384.31282835 277.63093584 384.32240657 273.75414181 384.33113575 C264.38971531 384.35089406 255.02528774 384.3609659 245.66084561 384.36986354 C241.24961231 384.37424777 236.83838021 384.37961426 232.42714787 384.38485241 C217.76058959 384.4018646 203.09403206 384.41635816 188.42746544 384.42360115 C184.62179151 384.42551101 180.81611759 384.42743135 177.01044369 384.42938709 C175.59164157 384.4301127 175.59164157 384.4301127 174.14417679 384.43085297 C158.82615719 384.43915098 143.50821573 384.46448406 128.19023024 384.49696777 C112.45914629 384.53005516 96.72810204 384.54805146 80.99698311 384.55124539 C72.16636755 384.55340901 63.33586593 384.56213588 54.50528431 384.58770657 C46.98371162 384.60943657 39.46228054 384.61745272 31.94068002 384.60773978 C28.10534908 384.60320162 24.27031019 384.60505274 20.43501949 384.62450123 C16.27001004 384.64543856 12.10564542 384.63512662 7.94060421 384.62196827 C6.13677648 384.63842214 6.13677648 384.63842214 4.29650778 384.65520841 C-6.99797209 384.56922488 -15.9180008 381.6119709 -24.42778873 374.13422108 C-25.03364811 373.63277576 -25.63950748 373.13133045 -26.26372623 372.61468983 C-32.39078339 367.11639181 -36.79973462 359.22952019 -38.42778873 351.13422108 C-38.52005522 349.32675852 -38.55863278 347.5162452 -38.56200981 345.70643234 C-38.56646766 344.59753204 -38.5709255 343.48863174 -38.57551843 342.3461284 C-38.57533407 341.12796153 -38.5751497 339.90979465 -38.57495975 338.65471363 C-38.57863644 337.3604875 -38.58231313 336.06626138 -38.58610123 334.73281628 C-38.59611325 331.1373884 -38.59983675 327.54197722 -38.60249054 323.94653738 C-38.60639601 320.06973492 -38.61597423 316.19294565 -38.62470341 312.31615162 C-38.64446172 302.95172512 -38.65453355 293.58729755 -38.6634312 284.22285542 C-38.66781543 279.81162212 -38.67318191 275.40039003 -38.67842007 270.98915768 C-38.69543226 256.3225994 -38.70992582 241.65604187 -38.71716881 226.98947525 C-38.71907867 223.18380132 -38.720999 219.3781274 -38.72295475 215.5724535 C-38.72343849 214.62658542 -38.72392223 213.68071735 -38.72442063 212.7061866 C-38.73271864 197.388167 -38.75805172 182.07022554 -38.79053543 166.75224005 C-38.82362281 151.02115611 -38.84161912 135.29011185 -38.84481305 119.55899292 C-38.84697667 110.72837736 -38.85570354 101.89787574 -38.88127422 93.06729412 C-38.90300423 85.54572143 -38.91102037 78.02429035 -38.90130744 70.50268983 C-38.89676928 66.66735889 -38.8986204 62.83232 -38.91806889 58.9970293 C-38.93900622 54.83201985 -38.92869428 50.66765524 -38.91553593 46.50261402 C-38.92650517 45.3000622 -38.93747442 44.09751037 -38.94877607 42.85851759 C-38.86279254 31.56403772 -35.90553856 22.64400901 -28.42778873 14.13422108 C-27.92634342 13.5283617 -27.42489811 12.92250233 -26.90825748 12.29828358 C-20.05944917 4.6662782 -10.22812657 0.01908525 0 0 Z " fill="#9F14B2" transform="translate(102.42778873443604,63.86577892303467)"/>
<path d="M0 0 C13.10579636 4.83558693 23.1410563 12.7363345 29.4375 25.2265625 C35.56176134 39.20760649 32.89065535 53.89698026 27.5625 67.6875 C23.13676891 77.52245797 14.99359009 84.71803741 7.375 92.125 C5.55392904 93.83002684 5.55392904 93.83002684 4.625 95.9375 C5.63530273 96.07998169 5.63530273 96.07998169 6.66601562 96.2253418 C29.94161432 99.56714342 52.44447515 103.10384469 68.44140625 122.09375 C77.70027292 134.90300916 78.08526339 149.68384286 76.625 164.9375 C75.68711868 170.58147618 73.88655435 175.69863341 71.625 180.9375 C71.2021875 181.92621094 70.779375 182.91492188 70.34375 183.93359375 C61.98260489 201.0690801 46.22231273 211.84164982 28.625 217.9375 C22.79640534 219.67778022 16.87534711 221.03891843 10.94824219 222.39648438 C1.65504166 224.56060085 -7.51660259 227.24870559 -16.6875 229.875 C-18.019021 230.25507202 -18.019021 230.25507202 -19.37744141 230.64282227 C-23.73630258 231.88849427 -28.09052826 233.14701937 -32.4375 234.43359375 C-34.02077259 234.89343838 -35.60410315 235.35308346 -37.1875 235.8125 C-37.89753174 236.02769287 -38.60756348 236.24288574 -39.33911133 236.46459961 C-45.3101251 238.17881036 -50.93918082 239.24909494 -56.625 236.1875 C-63.71202971 229.19572606 -64.82066503 215.34274726 -67.09375 206.05932617 C-68.54849712 200.136623 -70.09535046 194.27051565 -71.875 188.4375 C-74.25377571 180.62755425 -76.19965313 172.72838088 -78.14453125 164.80078125 C-79.58655532 158.96613001 -81.12423836 153.18677531 -82.875 147.4375 C-85.25332163 139.62739866 -87.19964508 131.72841372 -89.14453125 123.80078125 C-90.58655532 117.96613001 -92.12423836 112.18677531 -93.875 106.4375 C-96.25244129 98.63028957 -98.19826509 90.73429532 -100.14233398 82.80957031 C-101.60553914 76.88906529 -103.16952475 71.02399062 -104.9375 65.1875 C-106.80088445 58.98704483 -108.55373628 52.76518435 -110.1875 46.5 C-110.51633179 45.2929541 -110.51633179 45.2929541 -110.85180664 44.06152344 C-112.29399246 38.41378645 -113.35221397 32.75134526 -112.375 26.9375 C-108.86266582 21.51393674 -103.75696557 20.45292621 -97.8125 18.9375 C-96.88501953 18.68677734 -95.95753906 18.43605469 -95.00195312 18.17773438 C-87.9923905 16.30059726 -80.9470496 14.5551622 -73.89819336 12.83203125 C-66.96834898 11.12655765 -60.12299003 9.17551754 -53.2722168 7.17895508 C-46.08937434 5.10160728 -38.86124231 3.25472235 -31.59375 1.49804688 C-21.20527651 -1.02681125 -10.7145337 -2.86306392 0 0 Z " fill="#9E14B2" transform="translate(283.375,146.0625)"/>
<path d="M0 0 C9.504792 3.33373401 18.0886054 7.72697256 26 14 C26.6084375 14.43441406 27.216875 14.86882812 27.84375 15.31640625 C39.53946243 24.2210964 46.73731665 39.80820376 49 54 C49.28620178 57.60934134 49.3342136 61.19293774 49.3125 64.8125 C49.30512817 66.26825439 49.30512817 66.26825439 49.29760742 67.75341797 C49.11902502 78.68632389 46.45879912 87.5258311 42.0859375 97.50390625 C40.93320872 100.05289089 40.93320872 100.05289089 40 103 C41.43279297 103.52787109 41.43279297 103.52787109 42.89453125 104.06640625 C62.1918488 111.35583577 78.67634709 123.22282076 87.8125 142.25 C97.49575612 163.72028292 95.40185195 186.09136821 87.75 207.75 C83.15708799 218.96622719 76.53545664 228.45024611 68 237 C67.24074219 237.77085937 66.48148438 238.54171875 65.69921875 239.3359375 C53.23181643 251.29321698 37.91812037 257.19134814 21.4375 261.4375 C19.11025124 262.04916331 16.78342676 262.66244319 14.45703125 263.27734375 C12.78181396 263.71989502 12.78181396 263.71989502 11.07275391 264.17138672 C7.23277713 265.20689293 3.42811198 266.33785693 -0.375 267.5 C-9.17272328 270.16845594 -18.10152342 272.32272878 -27.03076172 274.50195312 C-32.18806928 275.76639094 -37.28965687 277.05966021 -42.34765625 278.6796875 C-50.78609274 281.26412481 -60.54333229 281.68242245 -68.625 277.8125 C-70.11183706 276.92089587 -71.57448467 275.98668556 -73 275 C-73.58136719 274.61585938 -74.16273438 274.23171875 -74.76171875 273.8359375 C-83.44177591 267.40788509 -85.6108166 257.49901879 -88.28466797 247.61816406 C-89.05494767 244.79888779 -89.85500836 241.98919842 -90.66015625 239.1796875 C-93.94984844 227.65572415 -97.01641865 216.09790436 -99.87084961 204.45874023 C-101.44552782 198.0826877 -103.19339464 191.7914774 -105.10595703 185.50976562 C-107.2528242 178.35924389 -108.99109636 171.11243465 -110.76953125 163.86328125 C-112.21155532 158.02863001 -113.74923836 152.24927531 -115.5 146.5 C-117.56469128 139.71982026 -119.31138261 132.88300372 -121 126 C-122.66833208 119.20000301 -124.38954329 112.44589138 -126.4375 105.75 C-129.13785645 96.91216673 -131.31145806 87.94542487 -133.50170898 78.96972656 C-134.77280417 73.78602438 -136.07462092 68.65255706 -137.68359375 63.5625 C-140.21064127 55.31859399 -140.32463951 46.79900932 -136.25390625 39.0546875 C-135.84011719 38.37664062 -135.42632812 37.69859375 -135 37 C-134.57589844 36.30132812 -134.15179688 35.60265625 -133.71484375 34.8828125 C-127.45197747 25.63679821 -118.68146358 22.10491911 -108.1875 19.4375 C-107.09018555 19.14431885 -105.99287109 18.8511377 -104.86230469 18.54907227 C-97.36720917 16.56114332 -89.84283816 14.68204226 -82.31030273 12.84130859 C-75.54470858 11.17687069 -68.86482106 9.26371378 -62.17749023 7.31152344 C-54.051888 4.96330241 -45.85938181 2.91502538 -37.64160156 0.91625977 C-36.67319336 0.67963623 -35.70478516 0.4430127 -34.70703125 0.19921875 C-33.8456958 -0.00872314 -32.98436035 -0.21666504 -32.09692383 -0.4309082 C-21.94966381 -3.18481006 -10.29449435 -2.9009423 0 0 Z M-40.3203125 23.5078125 C-45.80263696 25.31772075 -51.39191999 26.64203284 -57 28 C-64.55244727 29.85017903 -72.02777631 31.82346756 -79.46191406 34.10107422 C-86.85803142 36.33133752 -94.37089069 38.1043872 -101.89257812 39.85742188 C-110.71635616 41.86323799 -110.71635616 41.86323799 -117 48 C-117.83363341 54.64720893 -116.61801199 60.92493509 -114.875 67.3125 C-114.65199219 68.16714844 -114.42898437 69.02179688 -114.19921875 69.90234375 C-112.32292006 77.01361945 -110.28504826 84.07994049 -108.23193359 91.1418457 C-106.28257757 97.88352452 -104.55848866 104.66361096 -102.89453125 111.48046875 C-101.40335668 117.53064839 -99.74091515 123.51726112 -98 129.5 C-96.02060014 136.30230308 -94.17997168 143.11760092 -92.5 150 C-90.84016502 156.79938829 -89.02260111 163.53109671 -87.0625 170.25 C-84.57041885 178.79975532 -82.3730384 187.40022747 -80.25244141 196.04882812 C-78.40432952 203.52807544 -76.35023174 210.92858371 -74.18408203 218.32128906 C-72.17807699 225.21899213 -70.42071821 232.1631102 -68.82397461 239.16699219 C-67.25397596 245.77560735 -65.29142799 252.39031812 -60.75 257.5625 C-54.75978186 260.69375039 -48.22161069 258.81108062 -42.0625 256.9375 C-40.47795087 256.47756722 -38.89331008 256.01795011 -37.30859375 255.55859375 C-36.03411377 255.18323486 -36.03411377 255.18323486 -34.73388672 254.80029297 C-29.70828941 253.32914562 -24.66646541 251.91562748 -19.625 250.5 C-18.03002686 250.0505603 -18.03002686 250.0505603 -16.40283203 249.59204102 C-9.77348277 247.73640926 -3.12542236 246.00554809 3.5625 244.375 C26.85802676 238.62384468 48.78767869 231.71249852 62.54296875 210.52734375 C69.18994275 198.99760601 72.58610103 187.50948194 72.5 174.1875 C72.49355469 173.13868652 72.48710937 172.08987305 72.48046875 171.00927734 C72.13692793 156.37489047 67.2616511 146.14299184 56.82421875 135.85546875 C41.33837646 122.24354351 19.79856838 119.23685749 0 117 C3.82153097 112.46984077 7.77717936 108.22231111 12.0625 104.125 C20.37213279 95.84058612 24.02675521 87.25258799 27 76 C27.29197266 75.02353516 27.29197266 75.02353516 27.58984375 74.02734375 C30.06943566 61.77107515 27.3522459 49.62736988 20.6484375 39.27734375 C14.01748796 30.11657697 3.95996981 23.24651632 -7.06640625 20.44140625 C-18.76691589 18.68087684 -29.15992358 19.80764474 -40.3203125 23.5078125 Z " fill="#FDFBFD" transform="translate(288,125)"/>
<path d="M0 0 C13.10579636 4.83558693 23.1410563 12.7363345 29.4375 25.2265625 C35.56176134 39.20760649 32.89065535 53.89698026 27.5625 67.6875 C23.13676891 77.52245797 14.99359009 84.71803741 7.375 92.125 C5.55392904 93.83002684 5.55392904 93.83002684 4.625 95.9375 C5.63530273 96.07998169 5.63530273 96.07998169 6.66601562 96.2253418 C29.94161432 99.56714342 52.44447515 103.10384469 68.44140625 122.09375 C77.70027292 134.90300916 78.08526339 149.68384286 76.625 164.9375 C75.68711868 170.58147618 73.88655435 175.69863341 71.625 180.9375 C71.2021875 181.92621094 70.779375 182.91492188 70.34375 183.93359375 C63.00157738 198.98077893 49.23927032 210.29973517 33.625 215.9375 C32.635 215.9375 31.645 215.9375 30.625 215.9375 C32.11135175 212.47195356 34.10811845 210.28989445 36.75 207.625 C49.49154083 193.73261032 54.48340505 176.56043964 53.75244141 157.95898438 C52.95474934 145.30593776 49.23561356 135.08502646 40.0625 126.1875 C23.96370194 113.2465431 3.49874337 110.01734047 -16.375 107.9375 C-16.375 107.2775 -16.375 106.6175 -16.375 105.9375 C-15.715 105.9375 -15.055 105.9375 -14.375 105.9375 C-14.11976563 105.36773437 -13.86453125 104.79796875 -13.6015625 104.2109375 C-12.23725645 101.68219189 -10.61890255 99.74412728 -8.75 97.5625 C-3.7973581 91.43450286 0.05306252 84.92558953 3.625 77.9375 C3.93276367 77.34839844 4.24052734 76.75929688 4.55761719 76.15234375 C10.41133118 64.63476595 12.1834917 51.64959091 8.2890625 39.14453125 C7.08913391 35.84266127 5.71801428 33.20846264 3.4375 30.5 C0.625 27.11268248 0.625 27.11268248 0.625 24.9375 C0.08875 24.69 -0.4475 24.4425 -1 24.1875 C-3.375 22.9375 -3.375 22.9375 -6.0625 21 C-15.74159779 14.97339194 -26.86704734 14.25412569 -37.92919922 16.44287109 C-43.50660589 17.78207013 -48.98967007 19.42973944 -54.47949219 21.08642578 C-59.32977836 22.51206639 -64.2276072 23.74795809 -69.125 25 C-87.88411466 29.8541155 -87.88411466 29.8541155 -106.4296875 35.45703125 C-108.375 35.9375 -108.375 35.9375 -112.375 35.9375 C-112.51157216 34.54446395 -112.60771149 33.14743879 -112.6875 31.75 C-112.77451172 30.58404297 -112.77451172 30.58404297 -112.86328125 29.39453125 C-112.10553954 25.58157495 -110.42503524 24.30243849 -107.375 21.9375 C-104.26514326 20.61408606 -101.0832705 19.77131951 -97.8125 18.9375 C-96.88501953 18.68677734 -95.95753906 18.43605469 -95.00195312 18.17773438 C-87.9923905 16.30059726 -80.9470496 14.5551622 -73.89819336 12.83203125 C-66.96834898 11.12655765 -60.12299003 9.17551754 -53.2722168 7.17895508 C-46.08937434 5.10160728 -38.86124231 3.25472235 -31.59375 1.49804688 C-21.20527651 -1.02681125 -10.7145337 -2.86306392 0 0 Z " fill="#4E028F" transform="translate(283.375,146.0625)"/>
</svg>
