<?xml version="1.0" encoding="UTF-8"?>
<svg version="1.1" xmlns="http://www.w3.org/2000/svg" width="600" height="300">
<path d="M0 0 C99 0 198 0 300 0 C300 99 300 198 300 300 C201 300 102 300 0 300 C0 201 0 102 0 0 Z " fill="#FEFEFE" transform="translate(150,0)"/>
<path d="M0 0 C1.03495605 0.5580835 2.06991211 1.11616699 3.13623047 1.69116211 C4.78776123 2.59233765 4.78776123 2.59233765 6.47265625 3.51171875 C7.62781738 4.13763916 8.78297852 4.76355957 9.97314453 5.40844727 C18.27091474 9.91425098 26.4934766 14.54811947 34.69580078 19.22509766 C42.34734723 23.57056633 50.08296656 27.74845714 57.84765625 31.88671875 C67.58579237 37.07744035 77.27200216 42.34618708 86.90332031 47.73242188 C92.0691012 50.6114582 97.2473696 53.46796073 102.42507935 56.32546997 C104.28300423 57.35103129 106.14041675 58.37751584 107.99780273 59.40405273 C115.81609214 63.72117168 123.66321838 67.9809091 131.53515625 72.19921875 C131.53515625 72.85921875 131.53515625 73.51921875 131.53515625 74.19921875 C130.87322266 74.5552417 130.21128906 74.91126465 129.52929688 75.27807617 C98.94682062 91.69513953 98.94682062 91.69513953 68.53125 108.41796875 C52.09369456 117.57842801 35.62567436 126.69175451 19.04101562 135.58349609 C14.25220698 138.15589585 9.50662503 140.77760193 4.8125 143.51953125 C3.90121338 144.04442139 2.98992676 144.56931152 2.05102539 145.11010742 C0.34110324 146.09856478 -1.35971495 147.10301322 -3.04907227 148.1262207 C-3.80760498 148.561521 -4.5661377 148.99682129 -5.34765625 149.4453125 C-6.00137207 149.83388428 -6.65508789 150.22245605 -7.32861328 150.62280273 C-12.0917667 151.90803762 -16.82483416 148.62013086 -20.9296875 146.3984375 C-21.96464355 145.840354 -22.99959961 145.28227051 -24.06591797 144.70727539 C-25.16693848 144.1064917 -26.26795898 143.50570801 -27.40234375 142.88671875 C-28.55750488 142.26079834 -29.71266602 141.63487793 -30.90283203 140.98999023 C-39.20434941 136.48215176 -47.43085572 131.84656544 -55.63647461 127.16674805 C-63.76970991 122.54693671 -72.00804178 118.13334098 -80.26556396 113.7414856 C-88.22928191 109.50312526 -96.13053351 105.17281537 -103.96484375 100.69921875 C-113.84599781 95.0568602 -123.84399334 89.65417586 -133.88867188 84.31054688 C-140.1143466 80.99809949 -146.31794838 77.65597624 -152.46484375 74.19921875 C-152.46484375 73.53921875 -152.46484375 72.87921875 -152.46484375 72.19921875 C-151.71090332 71.79719238 -150.95696289 71.39516602 -150.18017578 70.98095703 C-136.41227174 63.63486118 -122.66892973 56.25640642 -109.04833984 48.63964844 C-103.48772167 45.53932267 -97.9134717 42.46357373 -92.33984375 39.38671875 C-91.71624969 39.04233765 -91.09265564 38.69795654 -90.45016479 38.34313965 C-81.04635372 33.15158357 -71.60927728 28.02480946 -62.15307617 22.92919922 C-55.27012089 19.20802756 -48.45298298 15.38092065 -41.65234375 11.51171875 C-38.83930973 9.92129385 -36.02479404 8.3335521 -33.20898438 6.74804688 C-31.37423183 5.71248903 -29.54220386 4.6720895 -27.71289062 3.62695312 C-25.12014295 2.15154284 -22.51387977 0.70354419 -19.90234375 -0.73828125 C-18.75125122 -1.40380005 -18.75125122 -1.40380005 -17.5769043 -2.08276367 C-16.85801025 -2.47310791 -16.13911621 -2.86345215 -15.3984375 -3.265625 C-14.78025146 -3.61230225 -14.16206543 -3.95897949 -13.52514648 -4.31616211 C-8.788554 -5.43029128 -4.06425045 -2.19971762 0 0 Z " fill="#0039BA" transform="translate(310.46484375,44.80078125)"/>
<path d="M0 0 C0.25403922 6.44038383 0.428854 12.87947378 0.54931641 19.32373047 C0.59953712 21.51432563 0.66773196 23.70458667 0.75439453 25.89404297 C0.87606234 29.0473862 0.93246956 32.1962969 0.9765625 35.3515625 C1.02817535 36.32678864 1.07978821 37.30201477 1.13296509 38.30679321 C1.13532825 41.18679409 1.0186569 43.30159663 0 46 C-3.01980278 48.71582648 -6.32211864 50.33001894 -10 52 C-11.00740234 52.5662207 -12.01480469 53.13244141 -13.05273438 53.71582031 C-14.31053711 54.39016113 -14.31053711 54.39016113 -15.59375 55.078125 C-16.55168457 55.59383057 -17.50961914 56.10953613 -18.49658203 56.64086914 C-19.48770996 57.17188232 -20.47883789 57.70289551 -21.5 58.25 C-28.73238997 62.14542929 -35.95221205 66.05830158 -43.125 70.0625 C-44.54808073 70.85433985 -45.97125933 71.64600384 -47.39453125 72.4375 C-49.87272648 73.8156772 -52.34998566 75.1954646 -54.82568359 76.578125 C-57.81760633 78.24631315 -60.81458469 79.90510993 -63.8125 81.5625 C-65.21943115 82.3505603 -65.21943115 82.3505603 -66.65478516 83.15454102 C-67.53827637 83.64108154 -68.42176758 84.12762207 -69.33203125 84.62890625 C-70.50342651 85.2796814 -70.50342651 85.2796814 -71.69848633 85.94360352 C-75.93629522 87.88876094 -80.13293192 88.17671321 -84.75 88.25 C-85.71421875 88.27578125 -86.6784375 88.3015625 -87.671875 88.328125 C-97.17075009 87.39161619 -105.20436197 82.44675012 -113.4375 77.9375 C-114.69462872 77.2555115 -115.95203733 76.57403872 -117.2097168 75.89306641 C-120.81224331 73.93914189 -124.40691282 71.97122934 -128 70 C-128.88526367 69.51515137 -129.77052734 69.03030273 -130.68261719 68.53076172 C-143.52610821 61.48211239 -156.25185926 54.21882669 -169 47 C-169 31.82 -169 16.64 -169 1 C-164.85875081 2.3804164 -161.98425754 3.40710811 -158.3671875 5.51171875 C-157.05560669 6.26618286 -157.05560669 6.26618286 -155.7175293 7.03588867 C-154.77949463 7.58092041 -153.84145996 8.12595215 -152.875 8.6875 C-143.8897787 13.84094932 -134.83034122 18.82198148 -125.6875 23.6875 C-116.29043398 28.69306049 -106.92876128 33.75110874 -97.63671875 38.94921875 C-97.02747559 39.28614746 -96.41823242 39.62307617 -95.79052734 39.97021484 C-94.56638674 40.67425426 -93.36366558 41.41653156 -92.18212891 42.18994141 C-89.29948365 44.0316533 -87.56536406 45.04691522 -84.10205078 44.75952148 C-81.03417922 44.00836861 -78.72962039 43.03674568 -75.97265625 41.515625 C-75.0280957 40.9995166 -74.08353516 40.4834082 -73.11035156 39.95166016 C-72.10456055 39.3901123 -71.09876953 38.82856445 -70.0625 38.25 C-69.0012793 37.66653809 -67.94005859 37.08307617 -66.84667969 36.48193359 C-58.84865105 32.07057647 -50.90523207 27.5626992 -42.96948242 23.04052734 C-33.80873417 17.84188308 -24.52740164 12.87622639 -15.22558594 7.93603516 C-14.09668945 7.33581543 -12.96779297 6.7355957 -11.8046875 6.1171875 C-10.80421387 5.58722168 -9.80374023 5.05725586 -8.77294922 4.51123047 C-6.89107495 3.48562722 -5.0332422 2.41488817 -3.19970703 1.30517578 C-1 0 -1 0 0 0 Z " fill="#0139BA" transform="translate(385,172)"/>
<path d="M0 0 C5.53636532 2.21454613 10.76524219 5.14467756 16 8 C16 28.79 16 49.58 16 71 C7.36442758 71 7.36442758 71 2.41333008 66.81201172 C-1.74078849 61.70456217 -0.60997598 54.85927047 -0.48828125 48.6328125 C-0.47894568 47.22892521 -0.47183308 45.82502153 -0.46684265 44.42111206 C-0.44783058 40.7414789 -0.39878266 37.06284618 -0.34332275 33.38360596 C-0.29200335 29.62306245 -0.26930174 25.8623559 -0.24414062 22.1015625 C-0.1906558 14.73392089 -0.10541641 7.36710108 0 0 Z " fill="#10BBFF" transform="translate(172,149)"/>
<path d="M0 0 C0.99 0.33 1.98 0.66 3 1 C2.67 15.85 2.34 30.7 2 46 C1.34 46 0.68 46 0 46 C0 30.82 0 15.64 0 0 Z " fill="#3956C2" transform="translate(216,173)"/>
</svg>
