<?xml version="1.0" encoding="UTF-8"?>
<svg version="1.1" xmlns="http://www.w3.org/2000/svg" width="200" height="200">
<path d="M0 0 C2.38928899 1.44870916 3.99304891 2.99304891 6 5 C6 5.66 6 6.32 6 7 C6.515625 6.649375 7.03125 6.29875 7.5625 5.9375 C11.10821105 4.57376498 13.3530138 5.04026679 17 6 C19.95295192 8.31100585 21.6182011 9.9818696 22.9375 13.5 C23.03884325 17.55373016 21.6705166 20.00763544 19.4375 23.3125 C16.26142928 25.51131819 13.9881706 25.61634306 10.18359375 25.47265625 C6.78698704 24.73743369 5.18865565 22.57488899 3 20 C-0.06540722 19.96306416 -0.06540722 19.96306416 -3.375 20.25 C-7.62242761 19.95707396 -9.03520994 18.96479006 -12 16 C-13.60847182 12.78305636 -13.61309149 9.47862778 -13 6 C-9.07404115 1.14420879 -6.25795636 -0.72207189 0 0 Z " fill="#25B57B" transform="translate(108,88)"/>
<path d="M0 0 C1.98 0 3.96 0 6 0 C7.65 3.96 9.3 7.92 11 12 C12.65 8.04 14.3 4.08 16 0 C17.98 0 19.96 0 22 0 C22 6.93 22 13.86 22 21 C20.35 21 18.7 21 17 21 C16.67 18.69 16.34 16.38 16 14 C15.01 16.31 14.02 18.62 13 21 C10.625 20.75 10.625 20.75 8 20 C6.6875 17.9375 6.6875 17.9375 6 16 C5.01 18.475 5.01 18.475 4 21 C2.68 21 1.36 21 0 21 C0 14.07 0 7.14 0 0 Z " fill="#4D2079" transform="translate(40,87)"/>
<path d="M0 0 C0.89203125 0.11085938 1.7840625 0.22171875 2.703125 0.3359375 C3.37859375 0.43132812 4.0540625 0.52671875 4.75 0.625 C4.83710289 3.72898978 4.89042309 6.83266548 4.9375 9.9375 C4.96263672 10.81857422 4.98777344 11.69964844 5.01367188 12.60742188 C5.02333984 13.45498047 5.03300781 14.30253906 5.04296875 15.17578125 C5.0586792 15.95606689 5.07438965 16.73635254 5.09057617 17.5402832 C4.66126055 20.16818722 3.84938263 21.03417903 1.75 22.625 C-0.73046875 22.91796875 -0.73046875 22.91796875 -3.4375 22.8125 C-4.78908203 22.77189453 -4.78908203 22.77189453 -6.16796875 22.73046875 C-6.85503906 22.69566406 -7.54210937 22.66085938 -8.25 22.625 C-8.58 21.305 -8.91 19.985 -9.25 18.625 C-6.58333333 17.95833333 -3.91666667 17.29166667 -1.25 16.625 C-2.36375 16.50125 -3.4775 16.3775 -4.625 16.25 C-8.25 15.625 -8.25 15.625 -10.25 13.625 C-11.29206898 9.02252868 -11.73031881 5.75886469 -9.25 1.625 C-6.01788423 -0.5129474 -3.78265641 -0.49771795 0 0 Z M-4.25 4.625 C-5.60618499 5.75034105 -5.60618499 5.75034105 -5.3125 8.6875 C-5.291875 9.656875 -5.27125 10.62625 -5.25 11.625 C-3.6 11.625 -1.95 11.625 -0.25 11.625 C-0.25 9.645 -0.25 7.665 -0.25 5.625 C-2.19603274 5.03429986 -2.19603274 5.03429986 -4.25 4.625 Z " fill="#4D1F78" transform="translate(89.25,91.375)"/>
<path d="M0 0 C1.65 0 3.3 0 5 0 C5.33 1.65 5.66 3.3 6 5 C6.86625 4.6596875 6.86625 4.6596875 7.75 4.3125 C10 4 10 4 12.125 5.03125 C14 7 14 7 14.390625 10.35546875 C14.32101563 12.25232422 14.32101563 12.25232422 14.25 14.1875 C14.21390625 15.45980469 14.1778125 16.73210937 14.140625 18.04296875 C14.07101563 19.50669922 14.07101563 19.50669922 14 21 C12.35 20.67 10.7 20.34 9 20 C9 16.37 9 12.74 9 9 C8.01 9.33 7.02 9.66 6 10 C5.67 13.63 5.34 17.26 5 21 C3.35 21 1.7 21 0 21 C0 14.07 0 7.14 0 0 Z " fill="#4D2079" transform="translate(146,87)"/>
<path d="M0 0 C1.87824891 1.87824891 1.39102397 5.03935276 1.5625 7.5625 C1.64628906 8.76003906 1.73007813 9.95757812 1.81640625 11.19140625 C1.87699219 12.11824219 1.93757813 13.04507813 2 14 C1.2265625 14.14953125 0.453125 14.2990625 -0.34375 14.453125 C-2.99314495 14.95784219 -2.99314495 14.95784219 -5.5 15.75 C-8 16 -8 16 -10.8125 14.875 C-13 13 -13 13 -13.4375 10.5 C-13 8 -13 8 -11 5 C-11.66 3.68 -12.32 2.36 -13 1 C-7.87036999 -1.66740761 -5.50430494 -2.62109759 0 0 Z M-8 3 C-8.33 3.66 -8.66 4.32 -9 5 C-7.02 5 -5.04 5 -3 5 C-3.33 4.34 -3.66 3.68 -4 3 C-5.32 3 -6.64 3 -8 3 Z M-8 9 C-8 9.66 -8 10.32 -8 11 C-6.35 10.67 -4.7 10.34 -3 10 C-3 9.34 -3 8.68 -3 8 C-5.21081851 7.89459074 -5.21081851 7.89459074 -8 9 Z " fill="#4D2079" transform="translate(76,93)"/>
<path d="M0 0 C1.21816406 0.03480469 1.21816406 0.03480469 2.4609375 0.0703125 C3.68683594 0.09738281 3.68683594 0.09738281 4.9375 0.125 C5.87722656 0.15980469 5.87722656 0.15980469 6.8359375 0.1953125 C7.4959375 1.5153125 8.1559375 2.8353125 8.8359375 4.1953125 C6.34528862 4.88238805 4.45707458 5.1953125 1.8359375 5.1953125 C3.8159375 5.8553125 5.7959375 6.5153125 7.8359375 7.1953125 C9.15932537 12.60917198 9.15932537 12.60917198 7.8359375 15.0078125 C4.85935421 16.77515883 2.26651239 17.01475593 -1.1640625 17.1953125 C-3.6015625 16.2578125 -3.6015625 16.2578125 -5.1640625 15.1953125 C-4.8340625 13.8753125 -4.5040625 12.5553125 -4.1640625 11.1953125 C-2.1840625 11.1953125 -0.2040625 11.1953125 1.8359375 11.1953125 C0.6603125 10.7621875 0.6603125 10.7621875 -0.5390625 10.3203125 C-3.1640625 9.1953125 -3.1640625 9.1953125 -5.1640625 7.1953125 C-4.78428356 3.39752315 -4.32156606 0.39003304 0 0 Z " fill="#4D1F78" transform="translate(136.1640625,91.8046875)"/>
<path d="M0 0 C2.375 2 2.375 2 4 4 C3.34 4 2.68 4 2 4 C1.6596875 4.86625 1.6596875 4.86625 1.3125 5.75 C-0.33038023 8.5663661 -2.39533227 10.08077114 -5 12 C-6.32 11.01 -7.64 10.02 -9 9 C-10.32 10.65 -11.64 12.3 -13 14 C-13.61364554 6.75898264 -13.61364554 6.75898264 -10.625 3.0625 C-6.85179378 0.09783797 -4.81488239 -0.48148824 0 0 Z " fill="#24B67A" transform="translate(108,88)"/>
<path d="M0 0 C0.66 0.33 1.32 0.66 2 1 C0.6062718 5.43458973 -1.60582235 7.87378374 -5 11 C-7.49361571 9.79618552 -9.68143083 8.54571278 -12 7 C-11.67 5.68 -11.34 4.36 -11 3 C-9.35 3.99 -7.7 4.98 -6 6 C-4.02 4.02 -2.04 2.04 0 0 Z " fill="#E6F6F0" transform="translate(110,93)"/>
<path d="M0 0 C-1.65091778 4.29238623 -4.73754566 6.8793915 -8 10 C-11.36720387 8.60667426 -12.9859524 7.0210714 -15 4 C-14.01 3.67 -13.02 3.34 -12 3 C-11.34 3.33 -10.68 3.66 -10 4 C-10 4.66 -10 5.32 -10 6 C-9.52949219 5.566875 -9.05898437 5.13375 -8.57421875 4.6875 C-7.64029297 3.8521875 -7.64029297 3.8521875 -6.6875 3 C-6.07261719 2.443125 -5.45773438 1.88625 -4.82421875 1.3125 C-3 0 -3 0 0 0 Z " fill="#F5FBF8" transform="translate(128,99)"/>
<path d="M0 0 C0.59296875 0.22558594 1.1859375 0.45117188 1.796875 0.68359375 C1.466875 2.66359375 1.136875 4.64359375 0.796875 6.68359375 C0.136875 5.36359375 -0.523125 4.04359375 -1.203125 2.68359375 C-2.523125 4.00359375 -3.843125 5.32359375 -5.203125 6.68359375 C-6.193125 6.35359375 -7.183125 6.02359375 -8.203125 5.68359375 C-7.30284912 4.64827649 -6.38219465 3.6306521 -5.453125 2.62109375 C-4.68742187 1.76837891 -4.68742187 1.76837891 -3.90625 0.8984375 C-2.203125 -0.31640625 -2.203125 -0.31640625 0 0 Z " fill="#2EBC80" transform="translate(129.203125,101.31640625)"/>
</svg>
