<?xml version="1.0" encoding="UTF-8"?>
<svg version="1.1" xmlns="http://www.w3.org/2000/svg" width="600" height="600">
<path d="M0 0 C198 0 396 0 600 0 C600 198 600 396 600 600 C402 600 204 600 0 600 C0 402 0 204 0 0 Z " fill="#FEFEFE" transform="translate(0,0)"/>
<path d="M0 0 C9.81931387 7.1319227 19.6567779 15.3287055 27.03125 25.03125 C27.34375 27.90625 27.34375 27.90625 27.03125 30.03125 C24.78125 30.79296875 24.78125 30.79296875 22.03125 31.03125 C20.03125 29.36328125 20.03125 29.36328125 18.03125 26.84375 C5.82074135 12.45351419 -9.69395105 -1.26173891 -29.24609375 -3.3125 C-41.65396633 -3.84218506 -50.70650313 0.12158752 -60.28125 8.21875 C-70.50909069 18.11070102 -79.18902692 29.79346534 -80.96875 44.03125 C-41.36875 44.03125 -1.76875 44.03125 39.03125 44.03125 C37.71125 46.34125 36.39125 48.65125 35.03125 51.03125 C25.79125 51.03125 16.55125 51.03125 7.03125 51.03125 C7.04172363 55.14062012 7.05219727 59.24999023 7.06298828 63.48388672 C7.09606344 77.03065484 7.11829549 90.57742232 7.13487434 104.12421989 C7.14519716 112.34113494 7.15927662 120.5580118 7.18212891 128.77490234 C7.2020321 135.93479885 7.21495912 143.09466771 7.21942699 150.25459111 C7.2220396 154.047477 7.22820106 157.84028378 7.24271011 161.63314438 C7.2562456 165.20027195 7.26048088 168.76728752 7.25746536 172.33443832 C7.2582813 174.27353083 7.26906399 176.21261103 7.28009033 178.15167236 C7.277341 179.29874664 7.27459167 180.44582092 7.27175903 181.62765503 C7.27452441 183.1292558 7.27452441 183.1292558 7.27734566 184.66119194 C7.03125 187.03125 7.03125 187.03125 5.03125 189.03125 C3.38125 188.70125 1.73125 188.37125 0.03125 188.03125 C0.03125 184.07125 0.03125 180.11125 0.03125 176.03125 C-1.28875 175.37125 -2.60875 174.71125 -3.96875 174.03125 C-5.67285156 172.63012695 -5.67285156 172.63012695 -7.359375 171.01953125 C-7.98239502 170.43002686 -8.60541504 169.84052246 -9.24731445 169.2331543 C-9.89788818 168.60965088 -10.54846191 167.98614746 -11.21875 167.34375 C-12.57077747 166.06421904 -13.92363288 164.78556233 -15.27734375 163.5078125 C-15.9204248 162.89969727 -16.56350586 162.29158203 -17.22607422 161.66503906 C-19.78705181 159.26407772 -22.42247468 156.95830271 -25.08203125 154.66796875 C-27.40533787 152.65251228 -29.68623465 150.59276538 -31.96875 148.53125 C-34.94937721 145.84141569 -37.94120233 143.16814636 -40.96875 140.53125 C-44.80525894 137.18778639 -48.5892949 133.7883666 -52.3671875 130.37890625 C-55.88423096 127.20511778 -59.4112641 124.04247548 -62.9375 120.87890625 C-64.31163919 119.6289681 -65.6552425 118.3447575 -66.96875 117.03125 C-66.77489545 114.19185098 -66.43946824 112.5580213 -64.52539062 110.41601562 C-63.58469727 109.68415039 -63.58469727 109.68415039 -62.625 108.9375 C-59.03896229 105.98429247 -55.70179304 102.86384957 -52.4375 99.5625 C-51.95297363 99.07450928 -51.46844727 98.58651855 -50.96923828 98.08374023 C-49.4669166 96.56836132 -47.96739812 95.0502615 -46.46875 93.53125 C-35.43114325 82.34366606 -35.43114325 82.34366606 -30.9609375 78.52734375 C-27.62994491 75.68308326 -24.52286616 72.64853445 -21.4453125 69.53515625 C-20.72918793 68.81076859 -20.72918793 68.81076859 -19.99859619 68.07174683 C-18.02164385 66.06706626 -16.04858869 64.05863591 -14.07958984 62.04614258 C-12.62246557 60.55900618 -11.15933243 59.07799995 -9.6953125 57.59765625 C-8.83502441 56.72052979 -7.97473633 55.84340332 -7.08837891 54.93969727 C-4.96875 53.03125 -4.96875 53.03125 -2.96875 53.03125 C-2.96875 52.37125 -2.96875 51.71125 -2.96875 51.03125 C-28.70875 51.03125 -54.44875 51.03125 -80.96875 51.03125 C-80.94554687 60.82554687 -80.92234375 70.61984375 -80.8984375 80.7109375 C-80.8882237 86.89974063 -80.87851358 93.08853769 -80.87109375 99.27734375 C-80.85921099 109.10988442 -80.84521664 118.9423909 -80.81787109 128.77490234 C-80.7979679 135.93479885 -80.78504088 143.09466771 -80.78057301 150.25459111 C-80.7779604 154.047477 -80.77179894 157.84028378 -80.75728989 161.63314438 C-80.7437544 165.20027195 -80.73951912 168.76728752 -80.74253464 172.33443832 C-80.7417187 174.27353083 -80.73093601 176.21261103 -80.71990967 178.15167236 C-80.722659 179.29874664 -80.72540833 180.44582092 -80.72824097 181.62765503 C-80.72547559 183.1292558 -80.72547559 183.1292558 -80.72265434 184.66119194 C-80.96875 187.03125 -80.96875 187.03125 -82.96875 189.03125 C-84.61875 188.70125 -86.26875 188.37125 -87.96875 188.03125 C-87.96875 142.82125 -87.96875 97.61125 -87.96875 51.03125 C-96.54875 51.03125 -105.12875 51.03125 -113.96875 51.03125 C-113.95827637 55.14062012 -113.94780273 59.24999023 -113.93701172 63.48388672 C-113.90393656 77.03065484 -113.88170451 90.57742232 -113.86512566 104.12421989 C-113.85480284 112.34113494 -113.84072338 120.5580118 -113.81787109 128.77490234 C-113.7979679 135.93479885 -113.78504088 143.09466771 -113.78057301 150.25459111 C-113.7779604 154.047477 -113.77179894 157.84028378 -113.75728989 161.63314438 C-113.7437544 165.20027195 -113.73951912 168.76728752 -113.74253464 172.33443832 C-113.7417187 174.27353083 -113.73093601 176.21261103 -113.71990967 178.15167236 C-113.722659 179.29874664 -113.72540833 180.44582092 -113.72824097 181.62765503 C-113.72547559 183.1292558 -113.72547559 183.1292558 -113.72265434 184.66119194 C-113.96875 187.03125 -113.96875 187.03125 -115.96875 189.03125 C-117.61875 188.70125 -119.26875 188.37125 -120.96875 188.03125 C-120.96875 142.82125 -120.96875 97.61125 -120.96875 51.03125 C-128.88875 51.03125 -136.80875 51.03125 -144.96875 51.03125 C-144.96875 96.24125 -144.96875 141.45125 -144.96875 188.03125 C-146.61875 188.36125 -148.26875 188.69125 -149.96875 189.03125 C-152.34789274 186.65210726 -152.22420092 186.12070448 -152.27734375 182.8828125 C-152.30014404 182.04814453 -152.32294434 181.21347656 -152.34643555 180.35351562 C-152.36617432 179.46341797 -152.38591309 178.57332031 -152.40625 177.65625 C-152.96694695 162.92390499 -155.97553858 147.76880534 -166.96875 137.03125 C-172.28154247 132.9853542 -177.94483328 129.87891972 -183.96875 127.03125 C-184.071875 128.165625 -184.175 129.3 -184.28125 130.46875 C-185.4574569 139.36087416 -188.17309748 145.93708419 -194.96875 152.03125 C-199.38322885 154.79142313 -203.91567915 154.68583422 -208.96875 154.03125 C-214.10183791 151.41804161 -217.1485408 148.49187759 -218.96875 143.03125 C-219.43549932 137.43025817 -219.09126802 132.2870089 -216.96875 127.03125 C-212.7493957 122.16276427 -209.37584641 119.78003115 -202.96875 119.03125 C-200.67791711 118.96602127 -198.38539206 118.9453659 -196.09375 118.96875 C-194.94132812 118.97777344 -193.78890625 118.98679687 -192.6015625 118.99609375 C-191.73273438 119.00769531 -190.86390625 119.01929688 -189.96875 119.03125 C-192.35975905 98.0814564 -199.19979492 78.0432202 -215.96875 64.03125 C-226.31759715 55.09978711 -226.31759715 55.09978711 -238.95239258 51.59887695 C-240.13323929 51.57908279 -241.314086 51.55928864 -242.53071594 51.53889465 C-243.79546249 51.53250473 -245.06020905 51.52611481 -246.36328125 51.51953125 C-247.66577316 51.50158005 -248.96826508 51.48362885 -250.31022644 51.46513367 C-253.7608439 51.41774089 -257.21139646 51.38786275 -260.66223145 51.36169434 C-264.18836187 51.33183425 -267.71427338 51.28548283 -271.24023438 51.24023438 C-278.14975661 51.15277207 -285.05875236 51.09273817 -291.96875 51.03125 C-291.96875 61.26125 -291.96875 71.49125 -291.96875 82.03125 C-287.4828125 81.9075 -287.4828125 81.9075 -282.90625 81.78125 C-269.68692588 81.65279176 -255.66283519 83.69782506 -245.71875 93.17578125 C-238.87485787 100.54518653 -237.73790376 105.78882328 -237.3125 115.75390625 C-236.99072512 118.82173716 -236.42261043 120.39685489 -234.96875 123.03125 C-234.84375 126.28125 -234.84375 126.28125 -234.96875 129.03125 C-237.28125 129.71875 -237.28125 129.71875 -239.96875 130.03125 C-241.63671875 128.55078125 -241.63671875 128.55078125 -242.96875 127.03125 C-243.41605469 127.50175781 -243.86335937 127.97226562 -244.32421875 128.45703125 C-244.92878906 129.07964844 -245.53335938 129.70226562 -246.15625 130.34375 C-246.74792969 130.95863281 -247.33960938 131.57351563 -247.94921875 132.20703125 C-253.62878037 137.33731225 -258.16888151 137.55857181 -265.64453125 137.37890625 C-271.31431296 136.78594436 -273.65655376 134.48157216 -277.34375 130.40625 C-279.56071261 125.80178919 -279.86752704 122.05200449 -278.96875 117.03125 C-276.53900804 111.21580203 -272.64557085 106.86966042 -266.96875 104.03125 C-258.12608178 102.79920275 -252.31899907 105.25429896 -244.96875 110.03125 C-246.92973728 103.09237192 -249.15066606 98.90094292 -255.45703125 95.2109375 C-259.50621538 93.3091434 -263.62791123 92.07335119 -267.96875 91.03125 C-268.57710693 90.86157715 -269.18546387 90.6919043 -269.81225586 90.51708984 C-272.15108044 89.9901725 -274.33998886 89.82228415 -276.734375 89.71484375 C-277.62382812 89.67294922 -278.51328125 89.63105469 -279.4296875 89.58789062 C-280.35007812 89.54857422 -281.27046875 89.50925781 -282.21875 89.46875 C-283.15460938 89.42556641 -284.09046875 89.38238281 -285.0546875 89.33789062 C-287.35923641 89.2320695 -289.66388839 89.12998443 -291.96875 89.03125 C-291.96652939 90.26930893 -291.96430878 91.50736786 -291.96202087 92.78294373 C-291.94179146 104.42310222 -291.92677883 116.06325717 -291.91693783 127.70342922 C-291.91170849 133.68844266 -291.90460992 139.67344196 -291.89331055 145.65844727 C-291.88248347 151.42908429 -291.87647355 157.19970768 -291.87387276 162.97035408 C-291.87201818 165.17727943 -291.86839696 167.384204 -291.86301994 169.59112358 C-291.8558119 172.67071041 -291.85475896 175.75024014 -291.85522461 178.82983398 C-291.85162933 179.75196182 -291.84803406 180.67408966 -291.84432983 181.62416077 C-291.85469784 187.91719784 -291.85469784 187.91719784 -292.96875 189.03125 C-295.46875 189.15625 -295.46875 189.15625 -297.96875 189.03125 C-299.69236 187.30764 -299.01087946 184.7517719 -299.03125 182.40625 C-299.36185135 177.88676854 -299.36185135 177.88676854 -301.4609375 173.99609375 C-303.55524092 172.21719747 -305.73642733 170.6330973 -307.96875 169.03125 C-309.65210566 167.55000339 -311.31828845 166.04906239 -312.96875 164.53125 C-315.92744751 161.86076656 -318.89801472 159.20826942 -321.90625 156.59375 C-326.10039365 152.94187947 -330.19969292 149.18858816 -334.30859375 145.44140625 C-337.15630795 142.86131864 -340.04119018 140.32923144 -342.94140625 137.80859375 C-346.15959468 134.98725322 -349.32743832 132.110308 -352.50390625 129.2421875 C-355.40155687 126.64302704 -358.33238531 124.08439192 -361.27734375 121.5390625 C-361.83550781 121.04148437 -362.39367187 120.54390625 -362.96875 120.03125 C-363.55785156 119.55429687 -364.14695312 119.07734375 -364.75390625 118.5859375 C-365.15480469 118.07289063 -365.55570312 117.55984375 -365.96875 117.03125 C-365.3293145 112.48227804 -362.39824183 110.06316017 -359.24609375 106.98046875 C-358.66718887 106.40343704 -358.088284 105.82640533 -357.49183655 105.23188782 C-356.26375567 104.01052739 -355.03208324 102.79276925 -353.79711914 101.57836914 C-351.93065066 99.7427474 -350.07477037 97.8969663 -348.22070312 96.04882812 C-342.9562577 90.81949084 -337.67524607 85.68874756 -332.02758789 80.87182617 C-327.05016818 76.42207315 -322.41958146 71.5823077 -317.71875 66.84375 C-316.63304907 65.75301968 -315.54711305 64.66252331 -314.4609375 63.57226562 C-312.47217963 61.57541269 -310.48476744 59.5772425 -308.49902344 57.57739258 C-306.32644271 55.39118605 -304.14815427 53.21065427 -301.96875 51.03125 C-327.37875 51.03125 -352.78875 51.03125 -378.96875 51.03125 C-378.95714844 60.90933594 -378.94554687 70.78742188 -378.93359375 80.96484375 C-378.92848731 87.2037763 -378.9236323 93.44270735 -378.91992188 99.68164062 C-378.91397872 109.59546422 -378.90697661 119.50927934 -378.89331055 129.4230957 C-378.88336417 136.64194608 -378.87689668 143.86078961 -378.87466151 151.07964665 C-378.87335432 154.90433255 -378.87026797 158.72899887 -378.86301994 162.55367851 C-378.85626046 166.14950787 -378.85413289 169.74530946 -378.85564232 173.34114456 C-378.85523364 175.29831037 -378.84983807 177.25547312 -378.84432983 179.21263123 C-378.8457045 180.366745 -378.84707916 181.52085876 -378.84849548 182.70994568 C-378.84757369 183.719309 -378.8466519 184.72867231 -378.84570217 185.7686224 C-378.96875 188.03125 -378.96875 188.03125 -379.96875 189.03125 C-382.46875 189.15625 -382.46875 189.15625 -384.96875 189.03125 C-385.96875 188.03125 -385.96875 188.03125 -386.06640625 185.30859375 C-386.05480469 184.20644531 -386.04320312 183.10429687 -386.03125 181.96875 C-386.02222656 180.86402344 -386.01320313 179.75929688 -386.00390625 178.62109375 C-385.99230469 177.76644531 -385.98070312 176.91179687 -385.96875 176.03125 C-386.55881836 175.7633667 -387.14888672 175.4954834 -387.75683594 175.21948242 C-389.99059458 174.01951517 -391.53148425 172.76512987 -393.359375 171.01953125 C-393.98239502 170.43002686 -394.60541504 169.84052246 -395.24731445 169.2331543 C-395.89788818 168.60965088 -396.54846191 167.98614746 -397.21875 167.34375 C-398.57077747 166.06421904 -399.92363288 164.78556233 -401.27734375 163.5078125 C-401.9204248 162.89969727 -402.56350586 162.29158203 -403.22607422 161.66503906 C-405.78705181 159.26407772 -408.42247468 156.95830271 -411.08203125 154.66796875 C-413.40533787 152.65251228 -415.68623465 150.59276538 -417.96875 148.53125 C-420.94937721 145.84141569 -423.94120233 143.16814636 -426.96875 140.53125 C-430.85622152 137.14538771 -434.68188806 133.69338532 -438.5078125 130.23828125 C-440.76889092 128.2104887 -443.05018712 126.20963079 -445.34375 124.21875 C-445.97925781 123.65800781 -446.61476563 123.09726562 -447.26953125 122.51953125 C-448.6705593 121.29242392 -450.0976242 120.09511042 -451.53125 118.90625 C-452.96875 117.03125 -452.96875 117.03125 -452.76757812 114.60742188 C-451.84919903 111.64570542 -451.04014461 110.8164974 -448.625 108.9375 C-445.03896229 105.98429247 -441.70179304 102.86384957 -438.4375 99.5625 C-437.95297363 99.07450928 -437.46844727 98.58651855 -436.96923828 98.08374023 C-435.4669166 96.56836132 -433.96739812 95.0502615 -432.46875 93.53125 C-421.43114325 82.34366606 -421.43114325 82.34366606 -416.9609375 78.52734375 C-413.62994491 75.68308326 -410.52286616 72.64853445 -407.4453125 69.53515625 C-406.96789612 69.05223114 -406.49047974 68.56930603 -405.99859619 68.07174683 C-404.02164385 66.06706626 -402.04858869 64.05863591 -400.07958984 62.04614258 C-398.62246557 60.55900618 -397.15933243 59.07799995 -395.6953125 57.59765625 C-394.83502441 56.72052979 -393.97473633 55.84340332 -393.08837891 54.93969727 C-390.96875 53.03125 -390.96875 53.03125 -388.96875 53.03125 C-388.96875 52.37125 -388.96875 51.71125 -388.96875 51.03125 C-389.86633026 51.03569122 -390.76391052 51.04013245 -391.68869019 51.04470825 C-400.13512255 51.0847324 -408.58152321 51.11520758 -417.02802849 51.13487434 C-421.37077749 51.145325 -425.71344833 51.15950747 -430.05615234 51.18212891 C-434.24473975 51.20381174 -438.43325184 51.21580896 -442.62189102 51.22100449 C-444.2223339 51.22470847 -445.82277251 51.23194113 -447.42318344 51.24271011 C-449.65965532 51.25716463 -451.89581337 51.25923051 -454.13232422 51.25830078 C-455.40695526 51.262742 -456.6815863 51.26718323 -457.99484253 51.27175903 C-460.96875 51.03125 -460.96875 51.03125 -462.96875 49.03125 C-462.43303571 45.49553571 -462.43303571 45.49553571 -460.96875 44.03125 C-458.98796222 43.93346698 -457.0036227 43.90753734 -455.02042294 43.90820217 C-453.71912534 43.90621112 -452.41782774 43.90422007 -451.07709688 43.90216869 C-449.61405542 43.90502229 -448.15101413 43.9079679 -446.68797302 43.91099548 C-445.14855925 43.91055992 -443.60914555 43.90968528 -442.06973225 43.90840632 C-437.81919519 43.90615849 -433.56868308 43.91018654 -429.31814921 43.91518438 C-424.74211857 43.9194846 -420.16608946 43.91804276 -415.59005737 43.9172821 C-407.65501507 43.9167566 -399.71998096 43.91990619 -391.78494072 43.92551994 C-380.31206573 43.93363132 -368.83919471 43.93624979 -357.36631716 43.93750793 C-338.75438172 43.93969903 -320.14245065 43.94636066 -301.53051758 43.95581055 C-283.44588238 43.96498319 -265.36124838 43.97206474 -247.27661133 43.97631836 C-245.60578139 43.97671244 -245.60578139 43.97671244 -243.90119731 43.97711449 C-238.31340937 43.97841949 -232.72562143 43.9796832 -227.13783348 43.98092639 C-180.74813596 43.99130079 -134.3584432 44.00892065 -87.96875 44.03125 C-87.99492149 43.12360901 -87.99492149 43.12360901 -88.0216217 42.19763184 C-88.03519211 41.39700317 -88.04876251 40.59637451 -88.06274414 39.77148438 C-88.08891563 38.58540588 -88.08891563 38.58540588 -88.11561584 37.37536621 C-87.87778536 33.57936936 -86.30047835 30.76263136 -84.40625 27.53125 C-84.04273438 26.88397949 -83.67921875 26.23670898 -83.3046875 25.56982422 C-80.30120336 20.3385816 -76.90841679 15.60126347 -72.96875 11.03125 C-72.38867188 10.29648438 -71.80859375 9.56171875 -71.2109375 8.8046875 C-52.08797381 -14.47892101 -24.53351923 -16.26959697 0 0 Z " fill="#0C0C0C" transform="translate(492.96875,209.96875)"/>
<path d="M0 0 C22.44 0 44.88 0 68 0 C68 31.02 68 62.04 68 94 C66.68 92.35 65.36 90.7 64 89 C56.17684447 79.39608728 48.53890196 74.18819405 37 70 C36.94054199 69.44763672 36.88108398 68.89527344 36.81982422 68.32617188 C34.87062951 50.99521045 31.40689521 36.35512519 21 22 C20.4328125 21.19949219 19.865625 20.39898437 19.28125 19.57421875 C15.39575044 14.31996366 11.06167515 10.11069376 6 6 C3.98508488 4.34871075 1.9851444 2.68737274 0 1 C0 0.67 0 0.34 0 0 Z " fill="#0695D4" transform="translate(273,261)"/>
<path d="M0 0 C0 25.08 0 50.16 0 76 C-5.62167523 72.62699486 -5.62167523 72.62699486 -8.26953125 70.109375 C-8.84413086 69.56829102 -9.41873047 69.02720703 -10.01074219 68.46972656 C-10.60532227 67.9022168 -11.19990234 67.33470703 -11.8125 66.75 C-13.06302042 65.57208626 -14.31431635 64.39499529 -15.56640625 63.21875 C-16.16211426 62.65800781 -16.75782227 62.09726562 -17.37158203 61.51953125 C-19.88616085 59.17309368 -22.47508171 56.91894656 -25.078125 54.671875 C-27.41105074 52.64241927 -29.70511245 50.572353 -32 48.5 C-34.98062721 45.81016569 -37.97245233 43.13689636 -41 40.5 C-41.94746094 39.67048828 -41.94746094 39.67048828 -42.9140625 38.82421875 C-44.48836568 37.4474405 -46.06729796 36.07595294 -47.6484375 34.70703125 C-48.54820312 33.91683594 -49.44796875 33.12664062 -50.375 32.3125 C-51.20773437 31.58675781 -52.04046875 30.86101562 -52.8984375 30.11328125 C-54.89970075 28.10085853 -55.82220366 26.53269246 -57 24 C-37.09512024 12.63558101 -37.09512024 12.63558101 -26.953125 9.046875 C-23.82765837 7.93890535 -20.79916248 6.67740608 -17.75 5.375 C-4.94834385 0 -4.94834385 0 0 0 Z " fill="#FAED00" transform="translate(493,301)"/>
<path d="M0 0 C0 24.75 0 49.5 0 75 C-5.14459602 71.14155298 -9.87889228 67.44331867 -14.5 63.0625 C-15.6360605 62.00059743 -16.77277571 60.93939484 -17.91015625 59.87890625 C-18.44656738 59.37762207 -18.98297852 58.87633789 -19.53564453 58.35986328 C-23.62832196 54.55922752 -27.88411328 50.94654843 -32.140625 47.33203125 C-38.27359812 42.11702905 -44.35929081 36.85761085 -50.3125 31.4375 C-50.8696167 30.93710205 -51.4267334 30.4367041 -52.00073242 29.92114258 C-54.48663645 27.63570837 -55.91376575 26.25870274 -57 23 C-14.39860877 0 -14.39860877 0 0 0 Z " fill="#F2911C" transform="translate(107,302)"/>
<path d="M0 0 C0 24.75 0 49.5 0 75 C-5.14450032 71.14162476 -9.87919995 67.44359204 -14.5 63.0625 C-15.63079317 62.00444126 -16.76230051 60.94714525 -17.89453125 59.890625 C-18.43029785 59.38982422 -18.96606445 58.88902344 -19.51806641 58.37304688 C-21.98098837 56.09109084 -24.51438953 53.89407871 -27.0546875 51.69921875 C-29.3366529 49.70593572 -31.57228574 47.66506973 -33.8125 45.625 C-37.35160002 42.42347567 -40.97103106 39.36853937 -44.6875 36.375 C-53.70172139 29.06374941 -53.70172139 29.06374941 -57 25 C-57 24.34 -57 23.68 -57 23 C-53.39771418 21.08835396 -49.79034073 19.18668312 -46.1784668 17.29321289 C-44.95640983 16.65092546 -43.73565155 16.00615952 -42.51635742 15.35864258 C-32.02320831 9.78970117 -21.30762068 5.18047007 -9.9375 1.6875 C-8.89464844 1.36136719 -7.85179687 1.03523438 -6.77734375 0.69921875 C-4 0 -4 0 0 0 Z " fill="#FBFBFB" transform="translate(194,302)"/>
<path d="M0 0 C3.65515365 2.4472951 5.43833703 5.10016735 6.80859375 9.2109375 C7.56845182 15.93025383 7.26817377 21.05437781 3.23828125 26.62109375 C-0.23013111 30.4780441 -4.22493048 31.92098122 -9.26953125 32.4140625 C-16.31890463 32.56620725 -21.61868334 31.39215909 -27.06640625 26.7734375 C-31.50050867 21.42643164 -31.63043828 17.19950238 -31.5 10.34765625 C-31.09351262 6.21589208 -30.13004235 4.1495736 -27.19140625 1.2109375 C-19.42350083 -5.06949667 -8.64972507 -4.47563756 0 0 Z " fill="#76777A" transform="translate(563.19140625,317.7890625)"/>
<path d="M0 0 C8.62511328 2.96271949 16.71958501 8.88785796 21.5625 16.6875 C22.93269519 19.8449063 23.57792866 21.62874947 23 25 C22.34 25.66 21.68 26.32 21 27 C18.06546739 26.63318342 17.13562754 26.13562754 15 24 C14.39671875 24.55429687 13.7934375 25.10859375 13.171875 25.6796875 C11.97304688 26.76636719 11.97304688 26.76636719 10.75 27.875 C9.96109375 28.59429687 9.1721875 29.31359375 8.359375 30.0546875 C3.09366353 34.39628405 -1.1392959 34.43297454 -7.86328125 34.3125 C-13.36498522 33.76438503 -15.75634784 31.34183522 -19.375 27.4375 C-21.67895822 22.56374222 -21.768597 18.30094217 -21 13 C-17.04253731 4.61017909 -9.40218868 -1.34989687 0 0 Z " fill="#0C0D0B" transform="translate(447,365)"/>
<path d="M0 0 C8.17967414 3.85323492 17.27722351 10.45951276 21 19 C21.40677966 24.18644068 21.40677966 24.18644068 20 27 C15.25 26.25 15.25 26.25 13 24 C12.56429687 24.47050781 12.12859375 24.94101562 11.6796875 25.42578125 C6.20088269 31.15362265 2.19972441 34.11363037 -5.9375 34.4375 C-11.55248953 34.27051146 -14.62859934 33.55176304 -19 30 C-22.56312679 25.89442704 -23.72586628 21.66118952 -23.44140625 16.265625 C-22.16458209 9.71201427 -17.63012546 4.75523978 -12.2265625 1.08203125 C-8.04229123 -0.95137777 -4.49430751 -1.10037618 0 0 Z " fill="#0E0A0A" transform="translate(64,365)"/>
<path d="M0 0 C1.19753906 0.00193359 2.39507813 0.00386719 3.62890625 0.00585938 C4.87027344 0.01810547 6.11164062 0.03035156 7.390625 0.04296875 C8.64746094 0.04361328 9.90429688 0.04425781 11.19921875 0.04492188 C20.50032676 0.09017051 20.50032676 0.09017051 21.640625 1.23046875 C21.765625 3.73046875 21.765625 3.73046875 21.640625 6.23046875 C19.82295561 8.04813814 16.97010432 7.40399754 14.5234375 7.44140625 C13.27691406 7.46976562 12.03039062 7.498125 10.74609375 7.52734375 C8.10039961 7.57927101 5.45454476 7.62358832 2.80859375 7.66015625 C1.55949219 7.69109375 0.31039062 7.72203125 -0.9765625 7.75390625 C-2.70302002 7.78363525 -2.70302002 7.78363525 -4.46435547 7.81396484 C-7.34645116 8.00330098 -7.34645116 8.00330098 -9.25830078 9.58056641 C-10.62535935 11.29843777 -10.62535935 11.29843777 -10.359375 14.10546875 C-9.14051521 17.9144056 -7.86528058 20.29358346 -4.359375 22.23046875 C0.07159888 22.99975089 4.46379578 23.0212345 8.953125 23.04296875 C10.7794043 23.08067383 10.7794043 23.08067383 12.64257812 23.11914062 C15.64225187 23.17795776 18.64046798 23.21427914 21.640625 23.23046875 C21.683346 24.8965878 21.68126332 26.5642976 21.640625 28.23046875 C19.8508631 30.02023065 17.16238572 29.42424056 14.7421875 29.4765625 C13.54078125 29.50943359 12.339375 29.54230469 11.1015625 29.57617188 C8.55216958 29.63718077 6.00268548 29.69449566 3.453125 29.74804688 C2.24914062 29.78220703 1.04515625 29.81636719 -0.1953125 29.8515625 C-1.30438965 29.87661865 -2.4134668 29.9016748 -3.55615234 29.92749023 C-6.56581972 30.03437467 -6.56581972 30.03437467 -9.359375 32.23046875 C-9.88798822 36.232826 -9.83996361 38.44724516 -7.7097168 41.91894531 C-4.76030629 44.81964321 -3.39642592 44.86643735 0.68359375 44.90234375 C2.41706055 44.93908203 2.41706055 44.93908203 4.18554688 44.9765625 C5.98862305 44.97849609 5.98862305 44.97849609 7.828125 44.98046875 C10.2174983 45.01346063 12.60682936 45.04973299 14.99609375 45.08984375 C16.05465576 45.09467773 17.11321777 45.09951172 18.20385742 45.10449219 C20.640625 45.23046875 20.640625 45.23046875 21.640625 46.23046875 C21.765625 48.73046875 21.765625 48.73046875 21.640625 51.23046875 C19.85232052 53.01877323 17.44481348 52.35895586 15.06420898 52.36941528 C14.28505127 52.36739105 13.50589355 52.36536682 12.703125 52.36328125 C11.51021851 52.36471634 11.51021851 52.36471634 10.29321289 52.36618042 C8.6085604 52.36686218 6.92390529 52.36500818 5.23925781 52.36083984 C2.65163303 52.3554915 0.06418184 52.36078494 -2.5234375 52.3671875 C-4.15625039 52.36652672 -5.78906316 52.36524555 -7.421875 52.36328125 C-8.20103271 52.36530548 -8.98019043 52.36732971 -9.78295898 52.36941528 C-15.24442395 52.3454198 -15.24442395 52.3454198 -16.359375 51.23046875 C-16.40001332 49.5642976 -16.402096 47.8965878 -16.359375 46.23046875 C-13.884375 45.73546875 -13.884375 45.73546875 -11.359375 45.23046875 C-11.99875 44.44671875 -12.638125 43.66296875 -13.296875 42.85546875 C-16.12442237 39.2567721 -16.74349375 37.03694651 -16.7265625 32.40625 C-16.07469257 28.54357391 -13.83016547 26.19541731 -11.359375 23.23046875 C-12.184375 22.26109375 -13.009375 21.29171875 -13.859375 20.29296875 C-16.45987799 16.62997454 -17.11373865 13.77508198 -16.84765625 9.3125 C-16.02914324 5.82236051 -14.18151009 4.30003448 -11.359375 2.23046875 C-7.4593937 0.3226875 -4.32147605 -0.01616275 0 0 Z " fill="#78787B" transform="translate(548.359375,253.76953125)"/>
<path d="M0 0 C0.33 0 0.66 0 1 0 C1 8.25 1 16.5 1 25 C-2.9342607 26.57370428 -6.61858796 27.77233851 -10.6875 28.875 C-19.24240594 31.2860904 -27.18625655 34.51982681 -35.1875 38.36328125 C-35.785625 38.57339844 -36.38375 38.78351563 -37 39 C-37.66 38.67 -38.32 38.34 -39 38 C-35.58942868 34.56446391 -32.1753981 31.13241435 -28.75830078 27.70336914 C-27.59949681 26.53957726 -26.44159678 25.37488451 -25.28466797 24.20922852 C-13.62192581 12.46080502 -13.62192581 12.46080502 -7.62866211 7.41210938 C-5.85217189 5.87182764 -4.20939395 4.24003945 -2.5625 2.5625 C-1.716875 1.716875 -0.87125 0.87125 0 0 Z " fill="#F9F9F9" transform="translate(492,269)"/>
<path d="M0 0 C0 8.25 0 16.5 0 25 C-2.73216797 25.88751953 -2.73216797 25.88751953 -5.51953125 26.79296875 C-7.9506281 27.59081907 -10.38161168 28.38901456 -12.8125 29.1875 C-14.00810547 29.57486328 -15.20371094 29.96222656 -16.43554688 30.36132812 C-23.15744236 32.5775389 -29.55516809 35.02116506 -35.8972168 38.1730957 C-36.59113525 38.44597412 -37.28505371 38.71885254 -38 39 C-38.66 38.67 -39.32 38.34 -40 38 C-37.01669981 34.99168504 -34.02990259 31.98689606 -31.04003906 28.98510742 C-30.02673848 27.96682708 -29.01434288 26.94764526 -28.00292969 25.92749023 C-22.71385134 20.59389984 -17.40252004 15.35357354 -11.68896484 10.46850586 C-9.3623436 8.44557629 -7.21129562 6.2717187 -5.0625 4.0625 C-1.10851419 0 -1.10851419 0 0 0 Z " fill="#F9F9F9" transform="translate(107,269)"/>
<path d="M0 0 C0 8.25 0 16.5 0 25 C-4.393125 26.36125 -4.393125 26.36125 -8.875 27.75 C-16.60756924 30.17608378 -24.16061042 32.76009677 -31.5234375 36.16796875 C-32.34070313 36.54566406 -33.15796875 36.92335938 -34 37.3125 C-34.721875 37.65925781 -35.44375 38.00601563 -36.1875 38.36328125 C-36.785625 38.57339844 -37.38375 38.78351563 -38 39 C-38.66 38.67 -39.32 38.34 -40 38 C-37.17097124 35.14153993 -34.33599221 32.28905016 -31.5 29.4375 C-30.70851562 28.63763672 -29.91703125 27.83777344 -29.1015625 27.01367188 C-24.82682607 22.72141603 -20.47871183 18.61067275 -15.88427734 14.66381836 C-12.79950244 11.93995972 -9.93717078 9.00473061 -7.0625 6.0625 C-1.13280394 0 -1.13280394 0 0 0 Z " fill="#86C13E" transform="translate(194,269)"/>
<path d="M0 0 C2.8176319 3.80761067 3.12081315 6.09835947 2.84375 10.74609375 C2.0335396 14.37416824 0.2692594 15.99338276 -2.6875 18.125 C-8.58112401 20.08954134 -14.66738198 20.11733868 -20.25 17.375 C-23.80071935 14.09741291 -24.51529813 12.47801471 -25.125 7.6875 C-24.6875 4.125 -24.6875 4.125 -22.5 1.25 C-16.86738608 -3.00575274 -6.07086126 -4.10505857 0 0 Z " fill="#FBFBFB" transform="translate(561.6875,323.875)"/>
<path d="M0 0 C3.20670663 1.73652219 6.0839954 3.81864772 9 6 C9.99 6.66 10.98 7.32 12 8 C11.68327951 13.22588808 8.69889181 16.5609835 5 20 C0.37467288 22.93455628 -4.71117329 22.73542857 -10 22 C-13.1875 20.0625 -13.1875 20.0625 -15 17 C-15.84635381 13.13095401 -15.93543645 9.6788061 -13.97265625 6.15625 C-9.83536158 1.0255016 -6.54590358 -0.84463272 0 0 Z " fill="#84BF3D" transform="translate(447,371)"/>
<path d="M0 0 C3.87584427 2.27360297 7.43345612 4.43970464 10.49609375 7.76171875 C9.13534097 13.37482395 4.86988181 16.372033 0.49609375 19.76171875 C-3.24378793 21.63165959 -7.43135072 21.29725358 -11.50390625 20.76171875 C-14.55730279 19.48048961 -15.34180511 18.49279387 -17.50390625 15.76171875 C-18.38547201 10.79289354 -18.0550328 8.0753192 -15.25390625 3.88671875 C-11.05873431 -1.27205011 -6.3271937 -3.12904899 0 0 Z " fill="#E61B22" transform="translate(64.50390625,372.23828125)"/>
<path d="M0 0 C1.11375 0.185625 1.11375 0.185625 2.25 0.375 C1.78293148 2.55465311 1.29200607 4.30087165 0.1875 6.25 C-1.12214931 9.21853845 -1.20927302 11.16008886 -0.75 14.375 C1.98040236 17.91517949 3.40329804 19.24466805 7.87890625 19.93359375 C9.17699219 19.89363281 10.47507812 19.85367187 11.8125 19.8125 C13.11316406 19.79058594 14.41382813 19.76867187 15.75390625 19.74609375 C18.87263618 19.41505538 20.69753937 19.12864655 23.25 17.375 C24.96500744 13.94498511 24.6520098 10.13379166 24.25 6.375 C22.89114884 3.97416562 22.89114884 3.97416562 21.25 2.375 C21.25 1.715 21.25 1.055 21.25 0.375 C24 0 24 0 27.25 0.375 C30.91940116 3.94783797 31.54232582 6.80082762 31.75 11.875 C31.54279901 16.80103649 30.73814876 19.70797182 27.25 23.375 C21.6303001 28.22837718 15.21956653 28.14226799 8.0859375 27.828125 C1.74875125 27.07953681 -1.49590081 24.76998039 -5.75 20.25 C-7.52273481 15.15338742 -7.8488032 9.47055311 -6.0234375 4.328125 C-4.35499897 1.47957141 -3.2948666 0.44929999 0 0 Z " fill="#77787A" transform="translate(538.75,354.625)"/>
<path d="M0 0 C2.87442856 1.39431236 5.4220905 3.12108982 8 5 C8.825 5.598125 9.65 6.19625 10.5 6.8125 C10.995 7.204375 11.49 7.59625 12 8 C10.63924722 13.6131052 6.37378806 16.61031425 2 20 C-1.45739557 21.72869779 -5.21975568 21.48966895 -9 21 C-11.87029869 19.20606332 -13.49131638 18.01736724 -15 15 C-15.70877381 9.92045436 -14.32500688 7.4333425 -11.38671875 3.515625 C-7.83799889 -0.36297586 -5.03164616 -0.57740202 0 0 Z " fill="#F6F6F6" transform="translate(235,320)"/>
<path d="M0 0 C0.69738281 0.00902344 1.39476562 0.01804687 2.11328125 0.02734375 C3.82566958 0.05080112 5.53788004 0.08666896 7.25 0.125 C6.87946669 7.78268839 5.22826162 15.49443198 -0.671875 20.87890625 C-3.93934633 22.83816067 -7.12587196 22.99335543 -10.75 22.125 C-13.82069201 19.56608999 -15.32408659 18.02464919 -16.19140625 14.15625 C-16.49218802 9.11087841 -15.07852085 6.00827432 -11.75 2.125 C-8.10086184 -0.42251154 -4.27432967 -0.10504024 0 0 Z " fill="#F5F5F5" transform="translate(295.75,334.875)"/>
<path d="M0 0 C2.475 0.495 2.475 0.495 5 1 C5.33 2.65 5.66 4.3 6 6 C6.66 6 7.32 6 8 6 C8.66 4.02 9.32 2.04 10 0 C11.32 0 12.64 0 14 0 C14 3.96 14 7.92 14 12 C13.01 12 12.02 12 11 12 C10.67 10.35 10.34 8.7 10 7 C9.34 8.32 8.68 9.64 8 11 C7.01 11 6.02 11 5 11 C4.67 10.01 4.34 9.02 4 8 C3.67 9.32 3.34 10.64 3 12 C2.01 12 1.02 12 0 12 C0 8.04 0 4.08 0 0 Z " fill="#343434" transform="translate(539,227)"/>
<path d="M0 0 C0.66 0.33 1.32 0.66 2 1 C-9.33333333 12.33333333 -20.66666667 23.66666667 -32 35 C-31.49974442 31.05840289 -30.82099949 29.36927328 -27.6875 26.93359375 C-23.99600867 23.89388136 -20.55904257 20.67224245 -17.1875 17.28515625 C-16.68404053 16.78059906 -16.18058105 16.27604187 -15.66186523 15.75619507 C-14.10584332 14.19367021 -12.55286349 12.62816314 -11 11.0625 C-9.92862113 9.98609346 -8.85700818 8.90991986 -7.78515625 7.83398438 C-5.18740362 5.22533255 -2.59282038 2.61355529 0 0 Z " fill="#212121" transform="translate(458,292)"/>
<path d="M0 0 C0.66 0.33 1.32 0.66 2 1 C-9.33333333 12.33333333 -20.66666667 23.66666667 -32 35 C-31.49974442 31.05840289 -30.82099949 29.36927328 -27.6875 26.93359375 C-23.99600867 23.89388136 -20.55904257 20.67224245 -17.1875 17.28515625 C-16.68404053 16.78059906 -16.18058105 16.27604187 -15.66186523 15.75619507 C-14.10584332 14.19367021 -12.55286349 12.62816314 -11 11.0625 C-9.92862113 9.98609346 -8.85700818 8.90991986 -7.78515625 7.83398438 C-5.18740362 5.22533255 -2.59282038 2.61355529 0 0 Z " fill="#1F1F1F" transform="translate(72,292)"/>
<path d="M0 0 C6.15234375 -0.09765625 6.15234375 -0.09765625 8 0 C9 1 9 1 9.1875 3.4375 C9 6 9 6 7 8 C3.9375 8.1875 3.9375 8.1875 1 8 C0 7 0 7 -0.0625 3.4375 C-0.041875 2.303125 -0.02125 1.16875 0 0 Z " fill="#78787B" transform="translate(561,392)"/>
<path d="M0 0 C0.66 0.33 1.32 0.66 2 1 C-4.93 7.93 -11.86 14.86 -19 22 C-18.67 22.66 -18.34 23.32 -18 24 C-20.31 24.66 -22.62 25.32 -25 26 C-20.03805145 20.00499003 -14.6523376 14.53572963 -9.125 9.0625 C-8.24585938 8.18787109 -7.36671875 7.31324219 -6.4609375 6.41210938 C-4.3095654 4.27242952 -2.15588208 2.13513403 0 0 Z " fill="#D6D6D7" transform="translate(478,282)"/>
<path d="M0 0 C2.475 0.495 2.475 0.495 5 1 C5.33 2.65 5.66 4.3 6 6 C6.66 6 7.32 6 8 6 C8 6.66 8 7.32 8 8 C6.68 8 5.36 8 4 8 C3.67 9.32 3.34 10.64 3 12 C2.01 12 1.02 12 0 12 C0 8.04 0 4.08 0 0 Z " fill="#404041" transform="translate(539,227)"/>
<path d="M0 0 C2.97 0 5.94 0 9 0 C9 0.66 9 1.32 9 2 C8.01 2 7.02 2 6 2 C6 5.3 6 8.6 6 12 C5.01 12 4.02 12 3 12 C3 9.03 3 6.06 3 3 C2.01 3 1.02 3 0 3 C0 2.01 0 1.02 0 0 Z " fill="#3C3D3D" transform="translate(528,227)"/>
<path d="M0 0 C0.66 0.33 1.32 0.66 2 1 C1.18208984 1.80219971 1.18208984 1.80219971 0.34765625 2.62060547 C-2.10672254 5.03355351 -4.55342556 7.45414031 -7 9.875 C-7.85851562 10.71675781 -8.71703125 11.55851562 -9.6015625 12.42578125 C-10.81972656 13.63427734 -10.81972656 13.63427734 -12.0625 14.8671875 C-12.81660156 15.61081543 -13.57070312 16.35444336 -14.34765625 17.12060547 C-16.22009491 18.83325987 -16.22009491 18.83325987 -16 21 C-17.98 21.66 -19.96 22.32 -22 23 C-17.47008204 17.56266945 -12.65705784 12.53541069 -7.625 7.5625 C-6.88894531 6.83095703 -6.15289062 6.09941406 -5.39453125 5.34570312 C-3.59863926 3.56147277 -1.80044015 1.77963876 0 0 Z " fill="#D4D4D4" transform="translate(89,285)"/>
<path d="M0 0 C0.66 0.33 1.32 0.66 2 1 C-2.62 5.62 -7.24 10.24 -12 15 C-11.67 15.66 -11.34 16.32 -11 17 C-13.31 17.66 -15.62 18.32 -18 19 C-12.44964797 12.21623641 -6.23557973 6.14477032 0 0 Z " fill="#6FA133" transform="translate(172,289)"/>
</svg>
